<svg width="31" height="22" viewBox="0 0 31 22" fill="none" xmlns="http://www.w3.org/2000/svg">
<g id="&#240;&#159;&#166;&#134; icon &#34;arrow left&#34;">
<g id="Group">
<path id="Vector" d="M12.3327 5.75945L14.0921 4.00001L10.5732 0.481104L8.81377 2.24055L12.3327 5.75945ZM3 11.5732L1.24056 9.81373C0.77392 10.2804 0.511766 10.9133 0.511765 11.5732C0.511764 12.2331 0.773916 12.866 1.24055 13.3326L3 11.5732ZM8.81377 20.9058C9.78549 21.8776 11.3609 21.8776 12.3327 20.9058C13.3044 19.9341 13.3044 18.3587 12.3327 17.387L8.81377 20.9058ZM8.81377 2.24055L1.24056 9.81373L4.75944 13.3326L12.3327 5.75945L8.81377 2.24055ZM1.24055 13.3326L8.81377 20.9058L12.3327 17.387L4.75945 9.81373L1.24055 13.3326Z" fill="white"/>
<path id="Vector_2" d="M28.2101 14.0614C29.5843 14.0614 30.6984 12.9473 30.6984 11.5731C30.6984 10.1989 29.5843 9.08488 28.2101 9.08488V14.0614ZM7.21228 9.08488H4.72405V14.0614H7.21228V9.08488ZM28.2101 9.08488H7.21228V14.0614H28.2101V9.08488Z" fill="white"/>
</g>
</g>
</svg>
