<svg width="25" height="26" viewBox="0 0 25 26">
  <defs>
    <linearGradient id="favoritesGradient" x1="100%" y1="0%" x2="0%" y2="100%">
      <stop offset="0%" stop-color="#634AFD" />
      <stop offset="100%" stop-color="#9A49F2" />
    </linearGradient>
  </defs>
  <g id="Icon / Heart">
    <g id="Group">
      <path id="Vector" d="M22 10.4373C22.0033 11.8906 21.4401 13.2886 20.4287 14.3379C18.1097 16.7283 15.8601 19.2208 13.4556 21.5234C12.9036 22.0428 12.0287 22.0239 11.5014 21.4809L4.57108 14.3389C2.47631 12.1798 2.47631 8.69477 4.57108 6.53668C5.06617 6.02006 5.66163 5.60877 6.32137 5.32775C6.98111 5.04673 7.69138 4.90182 8.40913 4.90182C9.12687 4.90182 9.83714 5.04673 10.4969 5.32775C11.1566 5.60877 11.7521 6.02006 12.2472 6.53668L12.4999 6.79546L12.7516 6.53668C13.2477 6.02128 13.8434 5.61075 14.5029 5.32967C15.1623 5.04858 15.8721 4.90274 16.5897 4.90088C18.0337 4.90088 19.4141 5.49022 20.4277 6.53668C21.4395 7.58583 22.003 8.98388 22 10.4373V10.4373Z" fill="url(#favoritesGradient)" stroke="url(#favoritesGradient)" stroke-width="1.6" stroke-linejoin="round"/>
    </g>
  </g>
</svg>
