<svg width="14" height="13" viewBox="0 0 14 13" fill="none" xmlns="http://www.w3.org/2000/svg">
<path d="M6.09415 12.6738C5.74508 12.6738 5.39603 12.603 5.07605 12.4614C4.42882 12.1664 4.04336 11.6413 4.04336 11.0454V7.8887C4.04336 7.58778 3.80337 7.14526 3.57793 6.91515L0.81449 4.56094C0.35634 4.18922 0 3.54018 0 3.06226V1.69341C0 0.743456 0.887227 0 2.01442 0H11.7156C12.8282 0 13.73 0.73165 13.73 1.6344V2.94426C13.73 3.5638 13.2718 4.27772 12.8355 4.62584C12.6246 4.79695 12.2756 4.79695 12.0647 4.62584C11.8538 4.45473 11.8538 4.17152 12.0647 4.00041C12.3337 3.7821 12.6392 3.29238 12.6392 2.94426V1.6344C12.6392 1.22138 12.2246 0.885046 11.7156 0.885046H2.01442C1.4981 0.885046 1.09084 1.23908 1.09084 1.69341V3.06226C1.09084 3.28057 1.309 3.7113 1.59262 3.94142L4.39246 6.33102C4.76334 6.70274 5.12692 7.32817 5.12692 7.8887V11.0454C5.12692 11.4348 5.45419 11.6236 5.59964 11.6885C5.91234 11.8301 6.28323 11.8242 6.57412 11.6826L7.59223 11.1516C7.80312 11.0513 8.00675 10.7267 8.00675 10.5084C8.00675 10.2665 8.254 10.0659 8.55217 10.0659C8.85033 10.0659 9.09758 10.2665 9.09758 10.5084C9.09758 11.0395 8.69034 11.6472 8.17401 11.9009L7.16317 12.4319C6.83592 12.5912 6.46503 12.6738 6.09415 12.6738Z" fill="#234F68"/>
<path d="M9.83225 9.44077C8.2469 9.44077 6.95972 8.39642 6.95972 7.11015C6.95972 5.82388 8.2469 4.77954 9.83225 4.77954C11.4176 4.77954 12.7048 5.82388 12.7048 7.11015C12.7048 8.39642 11.4176 9.44077 9.83225 9.44077ZM9.83225 5.66458C8.8505 5.66458 8.05055 6.31361 8.05055 7.11015C8.05055 7.90669 8.8505 8.55573 9.83225 8.55573C10.814 8.55573 11.6139 7.90669 11.6139 7.11015C11.6139 6.31361 10.814 5.66458 9.83225 5.66458Z" fill="#234F68"/>
<path d="M12.5952 9.7944C12.457 9.7944 12.3188 9.7531 12.2097 9.6646L11.4825 9.07457C11.2716 8.90346 11.2716 8.62024 11.4825 8.44913C11.6934 8.27802 12.0425 8.27802 12.2534 8.44913L12.9806 9.03916C13.1915 9.21027 13.1915 9.49349 12.9806 9.6646C12.8788 9.7472 12.7333 9.7944 12.5952 9.7944Z" fill="#234F68"/>
</svg>
