<svg width="25" height="26" viewBox="0 0 25 26" xmlns="http://www.w3.org/2000/svg">
  <defs>
    <linearGradient id="gradient" x1="0%" y1="0%" x2="100%" y2="0%">
      <stop offset="0%" stop-color="#634AFD" />
      <stop offset="100%" stop-color="#9A49F2" />
    </linearGradient>
  </defs>
  <g id="Icon / Profile">
    <path id="ShapeBorder" d="M18.3578 19.9009C16.8068 21.2995 14.7528 22.1509 12.5 22.1509C10.1091 22.1509 7.94218 21.1919 6.36285 19.6377" stroke="#252B5C" stroke-width="1.6" stroke-linecap="round" fill="none" />
    <path id="VectorBorder" d="M17.971 19.4524C17.8079 19.2498 17.6333 19.0552 17.4476 18.8696C16.0802 17.5021 14.2255 16.7339 12.2917 16.7339C10.3578 16.7339 8.50312 17.5021 7.13567 18.8696C6.89018 19.115 6.66401 19.3762 6.45813 19.6508" stroke="#252B5C" stroke-width="1.6" stroke-linecap="round" stroke-linejoin="round" fill="none" />
    <path id="Vector_2Border" d="M12.5 15.9009C13.4946 15.9009 14.4484 15.5058 15.1517 14.8025C15.8549 14.0993 16.25 13.1454 16.25 12.1509C16.25 11.1563 15.8549 10.2025 15.1517 9.49923C14.4484 8.79597 13.4946 8.40088 12.5 8.40088C11.5054 8.40088 10.5516 8.79597 9.84835 9.49923C9.14509 10.2025 8.75 11.1563 8.75 12.1509C8.75 13.1454 9.14509 14.0993 9.84835 14.8025C10.5516 15.5058 11.5054 15.9009 12.5 15.9009V15.9009Z" stroke="#252B5C" stroke-width="1.6" stroke-linecap="round" stroke-linejoin="round" fill="none" />
    <path id="Shape" d="M18.3578 19.9009C16.8068 21.2995 14.7528 22.1509 12.5 22.1509C10.1091 22.1509 7.94218 21.1919 6.36285 19.6377" stroke="none" fill="url(#gradient)" />
    <path id="Vector" d="M17.971 19.4524C17.8079 19.2498 17.6333 19.0552 17.4476 18.8696C16.0802 17.5021 14.2255 16.7339 12.2917 16.7339C10.3578 16.7339 8.50312 17.5021 7.13567 18.8696C6.89018 19.115 6.66401 19.3762 6.45813 19.6508" stroke="none" fill="url(#gradient)" />
    <path id="Vector_2" d="M12.5 15.9009C13.4946 15.9009 14.4484 15.5058 15.1517 14.8025C15.8549 14.0993 16.25 13.1454 16.25 12.1509C16.25 11.1563 15.8549 10.2025 15.1517 9.49923C14.4484 8.79597 13.4946 8.40088 12.5 8.40088C11.5054 8.40088 10.5516 8.79597 9.84835 9.49923C9.14509 10.2025 8.75 11.1563 8.75 12.1509C8.75 13.1454 9.14509 14.0993 9.84835 14.8025C10.5516 15.5058 11.5054 15.9009 12.5 15.9009V15.9009Z" stroke="none" fill="url(#gradient)" />
  </g>
</svg>
